HIERARCHY
ROOT Hips
{
    OFFSET 0.000000 0.000000 0.000000
    CHANNELS 6 Xposition Yposition Zposition Zrotation Xrotation Yrotation
    JOINT Spine
    {
        OFFSET -0.000000 7.236184 0.000000
        CHANNELS 3 Zrotation Xrotation Yrotation
        JOINT Spine1
        {
            OFFSET -0.000000 20.420147 0.000000
            CHANNELS 3 Zrotation Xrotation Yrotation
            JOINT Neck
            {
                OFFSET -0.000000 20.336288 1.848754
                CHANNELS 3 Zrotation Xrotation Yrotation
                JOINT Head
                {
                    OFFSET -0.000000 12.354461 -1.764923
                    CHANNELS 3 Zrotation Xrotation Yrotation
                    End Site
                    {
                        OFFSET -0.000000 22.061537 0.000000
                    }
                }
            }
            JOINT LeftShoulder
            {
                OFFSET 3.573296 18.396038 -0.314103
                CHANNELS 3 Zrotation Xrotation Yrotation
                JOINT LeftArm
                {
                    OFFSET 10.880760 0.000000 0.000000
                    CHANNELS 3 Zrotation Xrotation Yrotation
                    JOINT LeftForeArm
                    {
                        OFFSET 27.185530 0.000000 0.000000
                        CHANNELS 3 Zrotation Xrotation Yrotation
                        JOINT LeftHand
                        {
                            OFFSET 27.825975 0.000000 0.000000
                            CHANNELS 3 Zrotation Xrotation Yrotation
                            End Site
                            {
                                OFFSET 13.236923 0.000000 0.000000
                            }
                        }
                    }
                }
            }
            JOINT RightShoulder
            {
                OFFSET -3.474926 18.396038 -0.314103
                CHANNELS 3 Zrotation Xrotation Yrotation
                JOINT RightArm
                {
                    OFFSET -10.880760 0.000000 0.000000
                    CHANNELS 3 Zrotation Xrotation Yrotation
                    JOINT RightForeArm
                    {
                        OFFSET -27.185530 0.000000 0.000000
                        CHANNELS 3 Zrotation Xrotation Yrotation
                        JOINT RightHand
                        {
                            OFFSET -27.825975 0.000000 0.000000
                            CHANNELS 3 Zrotation Xrotation Yrotation
                            End Site
                            {
                                OFFSET -13.236923 0.000000 0.000000
                            }
                        }
                    }
                }
            }
        }
    }
    JOINT LeftUpLeg
    {
        OFFSET 8.824615 0.000000 0.000000
        CHANNELS 3 Zrotation Xrotation Yrotation
        JOINT LeftLeg
        {
            OFFSET -0.000000 -35.111282 0.000000
            CHANNELS 3 Zrotation Xrotation Yrotation
            JOINT LeftFoot
            {
                OFFSET -0.000000 -42.324711 0.000000
                CHANNELS 3 Zrotation Xrotation Yrotation
                JOINT LeftToeBase
                {
                    OFFSET -0.000000 -5.735999 13.236923
                    CHANNELS 3 Zrotation Xrotation Yrotation
                    End Site
                    {
                        OFFSET -0.000000 0.000000 3.529846
                    }
                }
            }
        }
    }
    JOINT RightUpLeg
    {
        OFFSET -8.824615 0.000000 0.000000
        CHANNELS 3 Zrotation Xrotation Yrotation
        JOINT RightLeg
        {
            OFFSET -0.000000 -35.111282 0.000000
            CHANNELS 3 Zrotation Xrotation Yrotation
            JOINT RightFoot
            {
                OFFSET -0.000000 -42.324711 0.000000
                CHANNELS 3 Zrotation Xrotation Yrotation
                JOINT RightToeBase
                {
                    OFFSET -0.000000 -5.735999 13.236923
                    CHANNELS 3 Zrotation Xrotation Yrotation
                    End Site
                    {
                        OFFSET -0.000000 0.000000 3.529846
                    }
                }
            }
        }
    }
}
MOTION
Frames:    14
Frame Time:    0.008333
-1.600590    80.908028    94.540466    -0.023095    -5.008922    -173.783829    -1.046661    -14.070772    0.884616    -1.194030    6.490041    1.081473    2.337611    4.936157    -3.018151    4.695070    3.839607    -2.871162    0.933071    18.219364    -2.555864    -43.237404    47.355587    -40.614136    -3.351282    -5.456931    -16.634306    17.059984    -5.531961    2.764255    6.749352    19.827145    -3.171900    37.826519    47.205597    42.674194    1.117130    -5.876835    17.192934    -14.811357    -5.490032    -4.287827    3.944292    -2.390204    -0.497301    -3.162567    6.482998    -2.256962    -1.255981    -8.012343    -7.156446    -0.214581    -0.332712    0.237998    -3.284304    -0.502249    1.166232    3.098141    6.362523    3.726387    -2.317409    -8.940779    -12.844831    -0.258001    0.142503    0.278994    
-1.596139    80.905060    94.536041    -0.035863    -5.009685    -173.756393    -1.037354    -14.092122    0.899421    -1.215275    6.509497    1.096816    2.341018    4.928625    -3.028504    4.712510    3.851676    -2.881048    0.941067    18.212782    -2.570480    -43.243595    47.344471    -40.602219    -3.354760    -5.500749    -16.639994    17.062599    -5.574674    2.775862    6.762892    19.811295    -3.182865    37.834930    47.206314    42.659134    1.114626    -5.879686    17.190750    -14.809404    -5.491984    -4.292378    3.933381    -2.393332    -0.516008    -3.161527    6.485741    -2.257866    -1.234183    -8.012745    -7.159276    -0.211135    -0.330939    0.234175    -3.295909    -0.497202    1.150301    3.102443    6.379287    3.832703    -2.344166    -8.954974    -12.965468    -0.258247    0.143704    0.279259    
-1.591682    80.902214    94.531586    -0.048175    -5.010115    -173.729172    -1.028530    -14.113075    0.913568    -1.235219    6.528850    1.111386    2.344021    4.921259    -3.038159    4.728872    3.863162    -2.890271    0.947989    18.206196    -2.584125    -43.249264    47.333832    -40.590763    -3.358062    -5.543106    -16.645481    17.066431    -5.615826    2.787523    6.775781    19.796000    -3.193079    37.842686    47.206692    42.644527    1.112323    -5.882424    17.188637    -14.807762    -5.493845    -4.296827    3.923004    -2.396022    -0.534501    -3.160506    6.488348    -2.258823    -1.212377    -8.013245    -7.162029    -0.207539    -0.329282    0.230187    -3.306844    -0.491666    1.134839    3.106423    6.395971    3.942533    -2.379780    -8.968145    -13.091276    -0.258998    0.146593    0.280070    
-1.587137    80.899536    94.526962    -0.059557    -5.009703    -173.701889    -1.020224    -14.133363    0.926517    -1.253174    6.548330    1.124733    2.346069    4.913827    -3.046758    4.744003    3.873946    -2.898390    0.953322    18.199789    -2.596385    -43.253468    47.324245    -40.580574    -3.360729    -5.583622    -16.650732    17.072060    -5.655018    2.799073    6.787278    19.781330    -3.201747    37.849884    47.206730    42.630249    1.110191    -5.885082    17.186758    -14.806664    -5.495630    -4.301261    3.913745    -2.397801    -0.552665    -3.159453    6.490829    -2.260136    -1.190320    -8.013947    -7.164713    -0.203708    -0.326531    0.225936    -3.316444    -0.484755    1.120148    3.110036    6.412224    4.060447    -2.405010    -8.982569    -13.223985    -0.259093    0.146811    0.280173    
-1.582428    80.897118    94.522057    -0.069761    -5.008080    -173.674164    -1.012208    -14.153066    0.938060    -1.269280    6.568555    1.136583    2.347614    4.905885    -3.054003    4.756872    3.884280    -2.905287    0.957005    18.193241    -2.607154    -43.256351    47.315670    -40.571495    -3.362749    -5.621747    -16.655668    17.080326    -5.691676    2.810493    6.797606    19.767282    -3.208637    37.856270    47.206272    42.616405    1.107984    -5.887768    17.185053    -14.805894    -5.497408    -4.305787    3.906148    -2.398194    -0.570981    -3.158742    6.493011    -2.262009    -1.167277    -8.014947    -7.166884    -0.199466    -0.322765    0.221230    -3.324109    -0.475933    1.105911    3.112751    6.428415    4.190732    -2.448500    -8.995220    -13.372725    -0.260240    0.150791    0.281411    
-1.577495    80.895042    94.516731    -0.078219    -5.004600    -173.645889    -1.003930    -14.171987    0.947942    -1.283829    6.590153    1.146728    2.348649    4.897287    -3.059768    4.767510    3.893683    -2.910789    0.959279    18.186247    -2.616421    -43.257614    47.308609    -40.563709    -3.363831    -5.657118    -16.660120    17.091476    -5.725386    2.821557    6.806991    19.753412    -3.213523    37.862034    47.205635    42.602680    1.105658    -5.890416    17.183533    -14.805844    -5.499109    -4.310332    3.900852    -2.396541    -0.589164    -3.158273    6.494824    -2.264857    -1.142957    -8.016380    -7.168519    -0.194685    -0.316989    0.215925    -3.329110    -0.464159    1.092585    3.114560    6.444006    4.335807    -2.478061    -9.009901    -13.534869    -0.260415    0.150691    0.281601    
-1.572281    80.893326    94.510910    -0.084909    -4.999077    -173.616745    -0.994927    -14.190514    0.956351    -1.297643    6.614098    1.155238    2.349683    4.887607    -3.064015    4.775622    3.901846    -2.914987    0.960410    18.178106    -2.624667    -43.257683    47.302860    -40.556530    -3.364084    -5.689838    -16.663967    17.105717    -5.756306    2.832210    6.816191    19.739267    -3.216461    37.867203    47.204620    42.588833    1.103199    -5.893033    17.182167    -14.806500    -5.500725    -4.314904    3.898022    -2.392642    -0.607476    -3.158188    6.496249    -2.268701    -1.116421    -8.018421    -7.169469    -0.189016    -0.309137    0.209635    -3.331293    -0.449153    1.080050    3.115370    6.459247    4.498619    -2.518811    -9.023750    -13.717778    -0.261123    0.152497    0.282366    
-1.566761    80.892006    94.504601    -0.089664    -4.991452    -173.586670    -0.984673    -14.208785    0.963296    -1.311530    6.640824    1.162145    2.350857    4.876497    -3.066743    4.781497    3.908815    -2.917835    0.960724    18.168783    -2.631774    -43.255993    47.298615    -40.550343    -3.363177    -5.720154    -16.667269    17.122696    -5.784628    2.842506    6.825782    19.724613    -3.217515    37.871937    47.202961    42.574783    1.100714    -5.895371    17.180733    -14.807846    -5.502063    -4.319265    3.897871    -2.386533    -0.625816    -3.158486    6.497447    -2.273741    -1.087131    -8.021275    -7.169606    -0.182234    -0.298375    0.202109    -3.330408    -0.430877    1.068249    3.115065    6.474059    4.678293    -2.545949    -9.039885    -13.916360    -0.260958    0.150568    0.282188    
-1.560944    80.891068    94.497826    -0.092604    -4.981833    -173.555695    -0.972783    -14.227104    0.968891    -1.326491    6.670807    1.167615    2.352915    4.864002    -3.067887    4.784736    3.913871    -2.919351    0.960914    18.157768    -2.638164    -43.253159    47.295551    -40.544544    -3.361410    -5.748275    -16.669849    17.142166    -5.810589    2.852346    6.836136    19.708879    -3.216390    37.876842    47.200909    42.559982    1.098069    -5.897550    17.179186    -14.809768    -5.503207    -4.323509    3.900216    -2.378319    -0.644231    -3.159157    6.498306    -2.279788    -1.054198    -8.024894    -7.168916    -0.174073    -0.284215    0.193053    -3.326644    -0.409510    1.057201    3.113778    6.488198    4.870323    -2.591691    -9.053791    -14.131713    -0.261883    0.152449    0.283187    
-1.554797    80.890488    94.490593    -0.093831    -4.970297    -173.523651    -0.958873    -14.245802    0.973382    -1.343333    6.704484    1.171875    2.355807    4.849636    -3.067556    4.786048    3.917549    -2.919626    0.961231    18.145096    -2.643934    -43.248470    47.293682    -40.539543    -3.358609    -5.774824    -16.671913    17.164303    -5.834770    2.862059    6.847944    19.691687    -3.213139    37.882290    47.198189    42.543888    1.095346    -5.899472    17.177383    -14.811938    -5.504110    -4.327358    3.905084    -2.368141    -0.662860    -3.160376    6.498983    -2.286927    -1.016451    -8.029467    -7.167087    -0.164137    -0.265966    0.182027    -3.320097    -0.385246    1.046657    3.111555    6.501233    5.066273    -2.621872    -9.069700    -14.349578    -0.261958    0.150563    0.283270    
-1.548447    80.890221    94.483139    -0.093640    -4.957469    -173.491241    -0.943261    -14.264815    0.976872    -1.362060    6.741078    1.175160    2.359688    4.834260    -3.065811    4.785303    3.918702    -2.918695    0.961984    18.131285    -2.649096    -43.242119    47.292542    -40.535545    -3.355036    -5.799586    -16.673393    17.189003    -5.856994    2.871605    6.860839    19.673399    -3.207995    37.888554    47.194740    42.526939    1.092688    -5.901083    17.175186    -14.814155    -5.504789    -4.330645    3.911814    -2.356727    -0.681230    -3.161721    6.499717    -2.294821    -0.973947    -8.035050    -7.164255    -0.152276    -0.243984    0.168867    -3.311432    -0.359131    1.036812    3.108805    6.512315    5.251723    -2.658763    -9.083573    -14.559162    -0.262632    0.150663    0.283998    
-1.541887    80.890182    94.475533    -0.092517    -4.943639    -173.458420    -0.926261    -14.284238    0.979733    -1.382613    6.780242    1.177722    2.364273    4.817454    -3.062809    4.782758    3.918091    -2.916660    0.962857    18.116488    -2.653744    -43.233734    47.292130    -40.532543    -3.350385    -5.823132    -16.674417    17.216776    -5.877728    2.881263    6.874969    19.653654    -3.201090    37.896015    47.190598    42.508404    1.090145    -5.902326    17.172722    -14.815991    -5.505211    -4.333373    3.919985    -2.344399    -0.699567    -3.163459    6.500433    -2.303466    -0.925809    -8.041500    -7.160044    -0.138110    -0.217341    0.153150    -3.301217    -0.331763    1.027271    3.105663    6.521385    5.419277    -2.720951    -9.092297    -14.756012    -0.264954    0.157556    0.286507    
-1.535306    80.890259    94.468102    -0.091147    -4.929861    -173.426132    -0.909416    -14.303652    0.982090    -1.403254    6.819770    1.179840    2.368801    4.800495    -3.058809    4.778343    3.915376    -2.913695    0.963569    18.101902    -2.657984    -43.223686    47.292053    -40.530987    -3.344946    -5.844890    -16.674902    17.247993    -5.896456    2.890935    6.888617    19.633799    -3.193098    37.904415    47.186111    42.489780    1.087765    -5.903358    17.169928    -14.817262    -5.505540    -4.335502    3.928347    -2.332320    -0.717254    -3.164975    6.501464    -2.312521    -0.872803    -8.048878    -7.154641    -0.121857    -0.186601    0.135119    -3.290639    -0.304881    1.017983    3.102534    6.528662    5.562848    -2.751294    -9.103919    -14.923540    -0.265619    0.157652    0.287226    
-1.528728    80.890350    94.460938    -0.089999    -4.916390    -173.394562    -0.893972    -14.322124    0.984148    -1.422149    6.857778    1.181696    2.372137    4.783827    -3.054097    4.772470    3.910883    -2.909947    0.963120    18.088404    -2.661701    -43.211506    47.292419    -40.531269    -3.338327    -5.864747    -16.675079    17.283258    -5.912893    2.901184    6.900807    19.614658    -3.184996    37.913101    47.181503    42.471912    1.085629    -5.904157    17.167072    -14.817822    -5.505765    -4.337024    3.936448    -2.320745    -0.734289    -3.166512    6.502656    -2.321956    -0.815835    -8.056777    -7.148057    -0.103884    -0.152619    0.115184    -3.280437    -0.278938    1.008965    3.099742    6.534634    5.683633    -2.750057    -9.118881    -15.062792    -0.264531    0.151261    0.286052    
